HIERARCHY
ROOT SpineBase
{
  OFFSET 0.000000 0.000000 0.000000
  CHANNELS 6 Xposition Yposition Zposition Zrotation Xrotation Yrotation
  JOINT SpineMid
  {
    OFFSET -0.000000 26.837956 0.000000
    CHANNELS 3 Zrotation Xrotation Yrotation
    JOINT SpineShoulder
    {
      OFFSET 0.098958 19.934714 -0.678386
      CHANNELS 3 Zrotation Xrotation Yrotation
      JOINT Neck
      {
        OFFSET 0.036048 6.608930 -0.483456
        CHANNELS 3 Zrotation Xrotation Yrotation
        JOINT Head
        {
          OFFSET 3.120759 12.267165 -0.318763
          CHANNELS 3 Zrotation Xrotation Yrotation
          End Site
          {
            OFFSET 0 0 0
          }
        }
      }
      JOINT ShoulderLeft
      {
        OFFSET -12.069714 -2.398143 -7.892623
        CHANNELS 3 Zrotation Xrotation Yrotation
        JOINT ElbowLeft
        {
          OFFSET -4.934062 -20.768700 -1.729371
          CHANNELS 3 Zrotation Xrotation Yrotation
          JOINT WristLeft
          {
            OFFSET 0.410516 -18.801963 -5.313138
            CHANNELS 3 Zrotation Xrotation Yrotation
            JOINT HandLeft
            {
              OFFSET 2.356062 -7.487968 -2.258538
              CHANNELS 3 Zrotation Xrotation Yrotation
              JOINT HandTipLeft
              {
                OFFSET 0.512078 -6.737514 -1.342422
                CHANNELS 3 Zrotation Xrotation Yrotation
                End Site
                {
                  OFFSET 0 0 0
                }
              }
              JOINT ThumbLeft
              {
                OFFSET -2.075075 -0.686669 -3.607988
                CHANNELS 3 Zrotation Xrotation Yrotation
                End Site
                {
                  OFFSET 0 0 0
                }
              }
            }
          }
        }
      }
      JOINT ShoulderRight
      {
        OFFSET 12.311901 -3.083293 5.034925
        CHANNELS 3 Zrotation Xrotation Yrotation
        JOINT ElbowRight
        {
          OFFSET 2.220752 -24.524633 1.104816
          CHANNELS 3 Zrotation Xrotation Yrotation
          JOINT WristRight
          {
            OFFSET 1.748850 -23.072139 -1.832233
            CHANNELS 3 Zrotation Xrotation Yrotation
            JOINT HandRight
            {
              OFFSET -1.884070 -3.221420 -1.304041
              CHANNELS 3 Zrotation Xrotation Yrotation
              JOINT HandTipRight
              {
                OFFSET 0.475454 -4.745435 -1.234374
                CHANNELS 3 Zrotation Xrotation Yrotation
                End Site
                {
                  OFFSET 0 0 0
                }
              }
              JOINT ThumbRight
              {
                OFFSET -2.377047 0.685825 -2.469284
                CHANNELS 3 Zrotation Xrotation Yrotation
                End Site
                {
                  OFFSET 0 0 0
                }
              }
            }
          }
        }
      }
    }
  }
  JOINT HipLeft
  {
    OFFSET -5.493925 0.940013 -5.371006
    CHANNELS 3 Zrotation Xrotation Yrotation
    JOINT KneeLeft
    {
      OFFSET -7.475055 -28.249537 1.370455
      CHANNELS 3 Zrotation Xrotation Yrotation
      JOINT AnkleLeft
      {
        OFFSET -4.319190 -33.937654 11.126067
        CHANNELS 3 Zrotation Xrotation Yrotation
        JOINT FootLeft
        {
          OFFSET 3.432170 -6.891004 -0.648748
          CHANNELS 3 Zrotation Xrotation Yrotation
          End Site
          {
            OFFSET 0 0 0
          }
        }
      }
    }
  }
  JOINT HipRight
  {
    OFFSET 5.242668 0.322602 -0.840811
    CHANNELS 3 Zrotation Xrotation Yrotation
    JOINT KneeRight
    {
      OFFSET -5.442621 -28.926806 4.795043
      CHANNELS 3 Zrotation Xrotation Yrotation
      JOINT AnkleRight
      {
        OFFSET -8.409286 -34.009101 8.578516
        CHANNELS 3 Zrotation Xrotation Yrotation
        JOINT FootRight
        {
          OFFSET 1.991355 -4.539080 -9.011146
          CHANNELS 3 Zrotation Xrotation Yrotation
          End Site
          {
            OFFSET 0 0 0
          }
        }
      }
    }
  }
}
MOTION
Frames: 16
Frame Time: 0.033333
15.762530 71.631179 366.476519 0.000000 0.000000 -22.876814 -0.000000 0.000000 22.876814 -0.000000 0.000000 0.000000 -0.000000 0.000000 0.000000 0.000000 0.000000 0.000000 -0.000000 0.000000 0.000000 -0.000000 0.000000 0.000000 -0.000000 0.000000 0.000000 -0.000000 0.000000 0.000000 0.000000 0.000000 0.000000 0.000000 0.000000 0.000000 -0.000000 0.000000 0.000000 -0.000000 0.000000 0.000000 -0.000000 0.000000 0.000000 -0.000000 0.000000 0.000000 0.000000 0.000000 0.000000 0.000000 0.000000 0.000000 -0.000000 0.000000 22.876814 -0.000000 0.000000 0.000000 -0.000000 0.000000 0.000000 0.000000 0.000000 0.000000 -0.000000 0.000000 22.876814 -0.000000 0.000000 0.000000 -0.000000 0.000000 0.000000 0.000000 0.000000 0.000000
15.720164 71.574686 366.371182 -0.185006 0.124730 -22.845877 0.218920 -0.043116 22.846161 -0.000000 0.000000 0.000000 -0.000000 0.000000 0.000000 0.000000 0.000000 0.000000 1.280858 1.135361 -0.389802 -0.319031 -1.324984 0.111508 -1.511540 -1.805435 -0.189793 1.009876 0.253172 0.216775 0.000000 0.000000 0.000000 0.000000 0.000000 0.000000 -0.000000 0.000000 0.000000 -0.000000 0.000000 0.000000 6.855333 -0.569069 -2.503823 -6.995360 -4.689801 2.137690 0.000000 0.000000 0.000000 0.000000 0.000000 0.000000 0.218920 -0.043116 22.846161 -0.000000 0.000000 0.000000 -0.843495 0.361087 0.262800 0.000000 0.000000 0.000000 0.218920 -0.043116 22.846161 -0.000000 0.000000 0.000000 -2.455160 -2.371924 3.982849 0.000000 0.000000 0.000000
15.679307 71.525658 366.271879 -0.359321 0.230050 -22.840017 0.420443 -0.072535 22.841004 -0.000000 0.000000 0.000000 -0.000000 0.000000 0.000000 0.000000 0.000000 0.000000 2.223606 2.029490 -0.708984 -0.377425 -2.348915 0.179441 -3.142088 -3.970067 -0.460775 2.279885 0.872945 0.402287 0.000000 0.000000 0.000000 0.000000 0.000000 0.000000 -0.642032 1.005098 0.067785 -0.198295 -0.821517 0.010677 12.408528 -1.482700 -4.116233 -11.688847 -8.551526 3.519903 0.000000 0.000000 0.000000 0.000000 0.000000 0.000000 0.420443 -0.072535 22.841004 -0.000000 0.000000 0.000000 -1.512365 0.683183 0.494651 0.000000 0.000000 0.000000 0.420443 -0.072535 22.841004 -0.000000 0.000000 0.000000 -4.092121 -4.452988 6.621731 0.000000 0.000000 0.000000
15.639958 71.484094 366.178612 -0.522966 0.315984 -22.859246 0.604643 -0.088001 22.861153 -0.000000 0.000000 0.000000 -0.000000 0.000000 0.000000 0.000000 0.000000 0.000000 2.871786 2.724085 -0.958551 -0.219211 -3.111505 0.211975 -4.921732 -6.410070 -0.802642 3.810952 1.866230 0.506676 0.000000 0.000000 0.000000 0.000000 0.000000 0.000000 -0.886744 1.364901 0.094332 -0.213107 -1.006974 0.018416 15.876957 -2.396592 -4.998596 -14.893421 -11.446503 4.385967 0.000000 0.000000 0.000000 0.000000 0.000000 0.000000 0.604643 -0.088001 22.861153 0.804020 -0.415381 0.319278 -2.794171 1.395586 0.392357 0.000000 0.000000 0.000000 0.604643 -0.088001 22.861153 -0.000000 0.000000 0.000000 -4.921340 -6.052315 7.814876 0.000000 0.000000 0.000000
15.602119 71.449994 366.091380 -0.675962 0.382559 -22.903577 0.771553 -0.089305 22.906435 -0.000000 0.000000 0.000000 -0.000000 0.000000 0.000000 0.000000 0.000000 0.000000 3.254252 3.248467 -1.140267 0.127927 -3.641653 0.212731 -6.846830 -8.963187 -1.188122 5.567977 3.161320 0.475041 0.000000 0.000000 0.000000 0.000000 0.000000 0.000000 -1.080485 1.629788 0.114454 -0.160889 -1.041682 0.030402 18.132399 -3.344899 -5.354339 -17.107671 -13.355532 4.875778 0.000000 0.000000 0.000000 0.000000 0.000000 0.000000 0.771553 -0.089305 22.906435 0.955665 -0.536514 0.385883 -3.236407 1.763424 0.493122 0.000000 0.000000 0.000000 0.771553 -0.089305 22.906435 -0.000000 0.000000 0.000000 -4.963504 -7.063228 7.503508 0.000000 0.000000 0.000000
15.565789 71.423358 366.010182 -0.818329 0.429797 -22.973019 0.921171 -0.076284 22.976702 -0.817228 0.192520 -0.059465 0.817432 -0.191652 0.062205 0.000000 0.000000 0.000000 4.200642 3.434655 -1.182095 0.649194 -3.959489 0.182186 -8.862421 -11.396945 -1.567136 7.470846 4.601902 0.268825 0.000000 0.000000 0.000000 0.000000 0.000000 0.000000 -0.407615 1.607009 0.185446 -0.036456 -0.926760 0.047258 19.414013 -4.333311 -5.280826 -18.618260 -14.293526 5.063186 0.000000 0.000000 0.000000 0.000000 0.000000 0.000000 0.921171 -0.076284 22.976702 1.048414 -0.649065 0.431964 -3.424394 2.078619 0.570490 0.000000 0.000000 0.000000 0.921171 -0.076284 22.976702 -0.000000 0.000000 0.000000 -4.213132 -7.449259 5.636209 0.000000 0.000000 0.000000
15.519044 71.403595 365.905215 -0.973198 0.488559 -23.029911 0.248268 -0.111677 23.005128 -0.183185 -0.075538 -0.045084 0.971894 -0.211975 0.074045 0.000000 0.000000 0.000000 4.130105 3.679484 -1.213723 1.728468 -4.129841 0.063685 -11.801954 -12.865897 -1.418266 9.521292 4.477774 -0.362513 0.000000 0.000000 0.000000 0.000000 0.000000 0.000000 -0.514545 1.967802 0.227874 0.398956 -0.511310 0.084370 21.058987 -8.536684 -2.929759 -21.389648 -13.420089 4.220016 0.000000 0.000000 0.000000 0.000000 0.000000 0.000000 1.086758 -0.068843 23.034713 0.892760 -0.658099 0.381229 -2.698899 1.680804 0.342806 0.000000 0.000000 0.000000 1.086758 -0.068843 23.034713 -0.000000 0.000000 0.000000 1.486409 -2.658557 -4.252938 0.000000 0.000000 0.000000
15.486865 71.390376 365.824628 -1.110407 0.499947 -23.139932 0.263202 -0.109483 23.111432 -0.168457 -0.119693 -0.049043 1.080168 -0.174724 0.081614 0.000000 0.000000 0.000000 4.134986 3.738041 -1.201694 2.273708 -3.946829 -0.034604 -13.769999 -14.652845 -1.678250 11.800750 6.620620 -0.946231 0.000000 0.000000 0.000000 0.000000 0.000000 0.000000 -0.369418 2.249181 0.262796 0.699769 -0.995825 0.020977 19.005196 -7.345627 -3.105070 -19.782881 -12.015663 4.023515 0.000000 0.000000 0.000000 0.000000 0.000000 0.000000 1.217529 -0.023294 23.145024 0.753671 -0.666022 0.335871 -1.955181 1.436505 0.189481 0.000000 0.000000 0.000000 1.217529 -0.023294 23.145024 -0.000000 0.000000 0.000000 4.605438 -1.533222 -9.822565 0.000000 0.000000 0.000000
15.486015 71.378083 365.747825 -1.157099 0.509621 -23.277084 0.268863 -0.162918 23.246416 -0.139183 -0.158356 -0.049421 1.113909 -0.093840 0.082911 0.000000 0.000000 0.000000 3.473215 3.720557 -1.096944 3.259092 -3.282968 -0.182348 -14.559516 -16.865111 -2.343086 14.370540 6.002985 -1.792889 0.000000 0.000000 0.000000 0.000000 0.000000 0.000000 -0.344650 2.084114 0.240426 1.018473 -0.360699 0.058388 17.451295 -8.073017 -2.211031 -17.679147 -10.186982 3.117665 0.000000 0.000000 0.000000 0.000000 0.000000 0.000000 1.264294 -0.010809 23.282350 0.809601 -0.849715 0.378988 -1.882952 2.197978 0.432482 0.000000 0.000000 0.000000 1.264294 -0.010809 23.282350 -0.000000 0.000000 0.000000 5.087523 -2.948729 -11.597527 0.000000 0.000000 0.000000
15.468741 71.380301 365.719955 -1.213279 0.462059 -23.623908 0.286786 -0.152845 23.591835 -0.077898 -0.168567 -0.046213 1.089826 -0.037054 0.080282 0.000000 0.000000 0.000000 2.594195 3.793379 -1.004961 4.226663 -3.663263 -0.236960 -15.483674 -16.951637 -2.280419 13.470192 8.345428 -1.307258 0.000000 0.000000 0.000000 0.000000 0.000000 0.000000 -0.299651 1.555850 0.180802 1.414004 0.722039 0.110831 15.763689 -9.061680 -1.206316 -18.282611 -9.315492 2.674935 0.000000 0.000000 0.000000 0.000000 0.000000 0.000000 1.296747 0.062925 23.628089 0.887861 -1.040266 0.430679 -0.880164 1.046786 -0.414578 0.000000 0.000000 0.000000 1.296747 0.062925 23.628089 -0.000000 0.000000 0.000000 4.228299 -4.710937 -10.979132 0.000000 0.000000 0.000000
15.441914 71.382285 365.709733 -1.303195 0.405176 -23.711149 0.337373 -0.150066 23.677425 -0.036707 -0.198838 -0.044864 1.091384 0.068221 0.078825 0.000000 0.000000 0.000000 1.435719 3.381779 -0.746506 5.726581 -3.049719 -0.555757 -17.445060 -17.113374 -1.959849 15.461231 10.772227 -2.056457 0.000000 0.000000 0.000000 0.000000 0.000000 0.000000 -0.092988 0.786267 0.099539 1.577502 2.243017 0.183216 14.081108 -9.094829 -1.074473 -17.553578 -7.770551 2.673319 0.000000 0.000000 0.000000 0.000000 0.000000 0.000000 1.356102 0.153129 23.713944 0.962787 -1.235007 0.482016 -3.431881 -1.640693 -1.701159 0.000000 0.000000 0.000000 1.356102 0.153129 23.713944 -0.772763 -0.404948 -0.097278 2.358586 -7.949398 -7.670550 0.000000 0.000000 0.000000
15.305661 71.426161 365.724720 -1.482198 0.293731 -24.063069 0.483717 -0.132179 24.027186 0.014459 -0.199781 -0.042539 1.079781 0.225455 0.075651 0.000000 0.000000 0.000000 0.532876 3.564699 -0.652199 6.665776 -3.579602 -0.592270 -16.886037 -15.343999 -1.322721 15.454806 10.276177 -2.201786 0.000000 0.000000 0.000000 0.000000 0.000000 0.000000 -0.244761 0.207701 0.019477 2.223609 3.820400 0.246837 13.631493 -9.645372 -1.128115 -17.353615 -6.141615 2.981578 0.000000 0.000000 0.000000 0.000000 0.000000 0.000000 1.473153 0.336175 24.062546 0.995451 -1.243993 0.494274 -4.371172 0.825716 -0.316833 0.000000 0.000000 0.000000 1.980216 1.029516 24.099959 -1.410681 -1.008639 -0.077754 2.151202 -6.080568 -6.495535 0.000000 0.000000 0.000000
15.310978 71.492770 365.836752 -1.393823 0.022077 -24.860648 0.473995 -0.058672 24.825677 0.069619 -0.322464 -0.034420 0.166598 -0.395607 0.282179 0.000000 0.000000 0.000000 -0.062511 4.193940 -0.680094 7.927633 -5.051910 -0.642120 -18.639728 -12.116195 0.425871 15.249831 5.053489 -2.636939 0.000000 0.000000 0.000000 0.000000 0.000000 0.000000 -0.625667 -0.036969 -0.056358 3.176190 4.769411 0.224452 12.745243 -9.525913 -1.354489 -18.248825 -2.546750 3.893783 0.000000 0.000000 0.000000 0.000000 0.000000 0.000000 1.273983 0.565907 24.854625 1.010785 -1.186180 0.491695 -2.529240 14.330178 6.421385 0.000000 0.000000 0.000000 1.590741 1.636980 24.812883 -1.413692 -1.369040 -0.022449 2.605220 -2.364940 -5.252835 0.000000 0.000000 0.000000
15.103664 71.600552 366.138313 -1.615363 -0.628437 -25.967168 0.561444 0.317823 25.923655 0.188385 -0.516622 -0.025597 -0.558212 -0.621048 0.452212 0.000000 0.000000 0.000000 0.152359 5.351224 -0.873776 8.627183 -7.132810 -0.529563 -20.445703 -9.559218 1.946170 15.010479 3.438503 -2.845758 0.000000 0.000000 0.000000 0.000000 0.000000 0.000000 -1.147612 -0.494903 -0.178073 4.430554 6.477615 0.197030 12.329346 -9.466424 -1.922612 -19.771527 0.051837 5.157025 0.000000 0.000000 0.000000 0.000000 0.000000 0.000000 1.177415 1.272065 25.945237 0.770510 -0.860229 0.367282 -2.771041 17.740506 8.569501 0.000000 0.000000 0.000000 1.253544 3.144107 25.778290 -0.882925 -1.652571 0.151279 4.866169 4.171319 -7.334836 0.000000 0.000000 0.000000
14.690188 71.740443 366.549525 -2.024544 -1.569710 -27.256590 0.692080 0.698848 27.186440 0.264925 -0.733019 -0.026763 -1.574899 -0.250160 0.577966 0.000000 0.000000 0.000000 1.421135 7.156316 -1.285385 8.571197 -9.636453 -0.212024 -20.386126 -4.958047 3.801965 13.813559 -0.184566 -2.982753 0.000000 0.000000 0.000000 0.000000 0.000000 0.000000 -1.532499 -0.757174 -0.295467 5.836807 8.414773 0.107648 11.924721 -9.634442 -2.401632 -21.507063 1.537821 6.285782 0.000000 0.000000 0.000000 0.000000 0.000000 0.000000 1.801065 2.912911 27.165943 -0.908946 -0.197472 0.006576 -1.458654 23.674765 12.195153 0.000000 0.000000 0.000000 1.162353 5.254500 26.950275 -1.401621 -2.577351 0.219806 3.339609 9.530356 -2.307715 0.000000 0.000000 0.000000
14.110244 71.922553 366.984031 -2.588367 -2.632168 -28.667640 0.879970 1.028610 28.547803 0.373696 -0.941992 -0.032905 -2.925392 0.762315 0.643779 0.000000 0.000000 0.000000 2.790325 9.205556 -1.775977 9.012718 -11.965634 0.106085 -19.769681 -0.144933 5.358138 11.204015 -4.116901 -2.790564 0.000000 0.000000 0.000000 0.000000 0.000000 0.000000 -1.807373 -0.950246 -0.412357 7.326327 10.528379 -0.066285 11.059904 -12.519057 -0.630617 -21.894502 1.373065 5.295179 0.000000 0.000000 0.000000 0.000000 0.000000 0.000000 2.723258 4.860520 28.465438 -2.125991 -0.335892 -0.020398 -0.568270 31.586765 15.869368 0.000000 0.000000 0.000000 1.485126 7.470913 28.303064 -1.480760 -3.279601 0.424098 2.583043 2.158383 -5.767020 0.000000 0.000000 0.000000
